<svg width="386" height="512" viewBox="0 0 386 512" fill="none" xmlns="http://www.w3.org/2000/svg">
<path d="M317.941 44.4022L317.94 44.4031L241.04 223.903L240.742 224.6H241.5H353C366.191 224.6 377.906 232.771 382.532 244.977C387.157 257.179 383.616 271.06 373.77 279.725L117.772 503.722C106.646 513.372 90.4037 514.157 78.4941 505.496C66.5825 496.833 62.252 481.082 68.0592 467.598L68.0596 467.597L144.96 288.197L145.258 287.5H144.5H33C19.9104 287.5 8.09485 279.231 3.46755 267.023C-1.15735 254.821 2.38401 240.94 12.2303 232.275L268.228 8.27775C279.354 -1.37162 295.596 -2.15714 307.506 6.50438C319.418 15.1674 323.748 30.9176 317.941 44.4022ZM144.286 288.5L67.6 467.4L144.286 288.5Z" fill="#473EB3" stroke="black"/>
</svg>
